<?xml version="1.0" encoding="UTF-8" standalone="no"?>
<!-- Uploaded to: SVG Repo, www.svgrepo.com, Generator: SVG Repo Mixer Tools -->

<svg
   fill="#000000"
   height="800px"
   width="800px"
   version="1.1"
   id="Layer_1"
   viewBox="0 0 512 512"
   enable-background="new 0 0 512 512"
   xml:space="preserve"
   sodipodi:docname="random-svgrepo-com.svg"
   inkscape:version="1.1.2 (0a00cf5339, 2022-02-04)"
   xmlns:inkscape="http://www.inkscape.org/namespaces/inkscape"
   xmlns:sodipodi="http://sodipodi.sourceforge.net/DTD/sodipodi-0.dtd"
   xmlns="http://www.w3.org/2000/svg"
   xmlns:svg="http://www.w3.org/2000/svg"><defs
   id="defs7" /><sodipodi:namedview
   id="namedview5"
   pagecolor="#ffffff"
   bordercolor="#666666"
   borderopacity="1.0"
   inkscape:pageshadow="2"
   inkscape:pageopacity="0.0"
   inkscape:pagecheckerboard="0"
   showgrid="false"
   inkscape:zoom="0.655"
   inkscape:cx="399.23664"
   inkscape:cy="399.23664"
   inkscape:window-width="1920"
   inkscape:window-height="1016"
   inkscape:window-x="0"
   inkscape:window-y="0"
   inkscape:window-maximized="1"
   inkscape:current-layer="Layer_1" />
<path
   d="M341.3,28.3v85.3H128c-70.7,0-128,57.3-128,128c0,21.5,5.8,41.4,15.2,59.2L68,263.2c-2.4-6.8-4-13.9-4-21.5  c0-35.4,28.7-64,64-64h213.3V263L512,156.3V135L341.3,28.3z M444,262.8c2.4,6.8,4,13.9,4,21.5c0,35.4-28.6,64-64,64H170.7V263  L0,369.7V391l170.7,106.7v-85.3H384c70.7,0,128-57.3,128-128c0-21.5-5.8-41.4-15.2-59.2L444,262.8z"
   id="path2"
   style="fill:#ffffff;fill-opacity:1" />
</svg>
